Coordinates
version=1
nRows=34
nColumns=33
inDegrees=yes

Units are S.I. units (second, meters, Newtons, ...)
Angles are in degrees.

endheader
time	ground_thorax_rot_x	ground_thorax_rot_y	ground_thorax_rot_z	ground_thorax_tx	ground_thorax_ty	ground_thorax_tz	clav_prot_r	clav_elev_r	scapula_abduction_r	scapula_elevation_r	scapula_upward_rot_r	scapula_winging_r	shoulder_elv_r	plane_of_elev_r	axial_rot_r	elbow_flexion_r	pro_sup_r	wrist_flex_r	wrist_dev_r	clav_prot_l	clav_elev_l	scapula_abduction_l	scapula_elevation_l	scapula_upward_rot_l	scapula_winging_l	shoulder_elv_l	plane_of_elev_l	axial_rot_l	elbow_flexion_l	pro_sup_l	wrist_flex_l	wrist_dev_l	
4.0900	-40.261551	-11.091375	15.967148	-227.492164	821.385579	1.915077	9.450093	-45.000000	39.309017	-45.000000	-44.999997	3499.120008	-1365.942132	32.086489	70.149709	1824.985337	147.879558	13.168344	4.513662	15.636699	38.228736	-37.975250	-45.000000	-45.000000	-2794.666762	791.757583	26.270086	-3.831647	1446.874363	25.343689	7.450543	-22.642967	
4.1000	-40.239779	-11.187092	16.056444	-227.322112	820.570022	1.786788	9.432656	-45.000000	39.266465	-45.000000	-44.999994	3499.188940	-1366.047897	31.998348	70.359772	1825.006734	148.195768	13.163484	4.577253	15.602002	38.199293	-37.885173	-45.000000	-45.000000	-2794.768143	791.728846	26.304390	-3.635138	1446.844119	25.462036	7.349913	-22.617025	
4.1100	-40.219024	-11.282648	16.122624	-227.097604	819.761258	1.650938	9.398380	-45.000000	39.245400	-45.000000	-44.999990	3499.291259	-1366.120977	31.894917	70.562767	1825.056693	148.592687	13.158039	4.647595	15.530434	38.193736	-37.764612	-45.000000	-45.000000	-2794.885733	791.724064	26.353294	-3.440993	1446.823670	25.597397	7.241452	-22.598903	
4.1200	-40.204829	-11.360983	16.189878	-226.741252	818.965280	1.498080	9.399119	-45.000000	39.216701	-45.000000	-44.999982	3499.356176	-1366.217701	31.834011	70.746165	1825.098927	149.157955	13.136880	4.730002	15.493791	38.179869	-37.707870	-45.000000	-45.000000	-2794.989549	791.707179	26.397945	-3.225188	1446.826087	25.759648	7.132108	-22.585836	
4.1300	-40.195742	-11.428701	16.251137	-226.265431	818.188438	1.328223	9.414391	-45.000000	39.188869	-45.000000	-44.999968	3499.407710	-1366.318161	31.798358	70.903897	1825.141643	149.899018	13.106447	4.825556	15.464672	38.164241	-37.685521	-45.000000	-45.000000	-2795.089423	791.691240	26.443277	-2.997853	1446.847426	25.958988	7.014061	-22.578403	
4.1400	-40.190988	-11.496097	16.311163	-225.675231	817.440238	1.140476	9.433905	-45.000000	39.165252	-45.000000	-44.999943	3499.457240	-1366.412151	31.777598	71.024850	1825.186251	150.813420	13.067626	4.934412	15.449949	38.153734	-37.686200	-45.000000	-44.999999	-2795.186456	791.678816	26.487458	-2.768932	1446.882728	26.201247	6.884863	-22.575528	
4.1500	-40.190278	-11.562093	16.368779	-225.000507	816.732622	0.936773	9.448487	-45.000000	39.145264	-45.000000	-44.999898	3499.506944	-1366.497411	31.771251	71.094773	1825.227915	151.870882	13.023690	5.053851	15.449337	38.144188	-37.705117	-45.000000	-44.999998	-2795.276288	791.668633	26.530808	-2.550803	1446.926281	26.487745	6.743936	-22.574665	
4.1600	-40.194326	-11.629237	16.423766	-224.279446	816.079956	0.720418	9.443669	-45.000000	39.126141	-45.000000	-44.999817	3499.571616	-1366.562937	31.767402	71.098460	1825.264526	153.023067	12.977323	5.179789	15.467578	38.144867	-37.727541	-45.000000	-44.999997	-2795.358148	791.662856	26.575589	-2.361501	1446.969765	26.813468	6.594574	-22.574640	
4.1700	-40.203724	-11.692959	16.478237	-223.543735	815.498187	0.494798	9.421145	-45.000000	39.105077	-45.000000	-44.999672	3499.643801	-1366.613805	31.772140	71.020143	1825.288384	154.220702	12.927373	5.307602	15.515253	38.151427	-37.754919	-45.000000	-44.999995	-2795.423142	791.659860	26.623894	-2.213353	1447.008416	27.165795	6.444496	-22.573208	
4.1800	-40.220301	-11.743819	16.528406	-222.815360	815.003203	0.263242	9.384332	-45.000000	39.079451	-45.000000	-44.999413	3499.723974	-1366.646749	31.785604	70.849534	1825.302253	155.421309	12.872949	5.430936	15.583315	38.167713	-37.790075	-45.000000	-44.999991	-2795.473160	791.661564	26.670341	-2.114848	1447.045253	27.526209	6.301514	-22.571709	
4.1900	-40.241949	-11.771786	16.572894	-222.104508	814.608714	0.028915	9.336304	-45.000000	39.044854	-45.000000	-44.998948	3499.805811	-1366.663296	31.815333	70.578951	1825.304101	156.606478	12.812252	5.546092	15.669727	38.190782	-37.841143	-45.000000	-44.999984	-2795.500317	791.662442	26.717275	-2.067440	1447.083930	27.876366	6.174284	-22.570957	
4.2000	-40.265859	-11.767300	16.609277	-221.409275	814.324314	-0.205234	9.289123	-45.000000	38.997072	-45.000000	-44.998116	3499.883600	-1366.665886	31.868614	70.212746	1825.292138	157.772790	12.745744	5.647733	15.754379	38.214967	-37.915497	-45.000000	-44.999972	-2795.514814	791.660906	26.752713	-2.065181	1447.134572	28.197122	6.068128	-22.573298	
4.2100	-40.283134	-11.746598	16.646687	-220.717181	814.153783	-0.436454	9.239144	-45.000000	38.946510	-45.000000	-44.996626	3499.966130	-1366.644043	31.935666	69.762224	1825.274180	158.924146	12.671960	5.732831	15.837006	38.240007	-37.991101	-45.000000	-44.999950	-2795.518637	791.659930	26.783609	-2.100980	1447.193971	28.470717	5.987031	-22.577326	
4.2200	-40.293827	-11.703042	16.677718	-220.007866	814.094201	-0.662300	9.199149	-45.000000	38.898726	-45.000000	-44.993954	3500.048131	-1366.606518	32.025668	69.248536	1825.253420	160.070115	12.593005	5.796508	15.892016	38.256484	-38.075745	-45.000000	-44.999910	-2795.527375	791.664401	26.794484	-2.160117	1447.270372	28.680555	5.932250	-22.584856	
4.2300	-40.292812	-11.656848	16.712447	-219.256688	814.135926	-0.880661	9.155795	-45.000000	38.865355	-45.000000	-44.989177	3500.144972	-1366.545875	32.121167	68.689883	1825.237866	161.228467	12.508125	5.839511	15.937887	38.269751	-38.151551	-45.000000	-44.999838	-2795.533221	791.671934	26.801857	-2.232647	1447.351045	28.816942	5.905382	-22.593032	
4.2400	-40.282894	-11.601366	16.743492	-218.438130	814.263691	-1.089846	9.126167	-45.000000	38.851572	-45.000000	-44.980594	3500.245196	-1366.480424	32.236000	68.106550	1825.220734	162.417710	12.420566	5.863008	15.955029	38.272587	-38.224081	-45.000000	-44.999710	-2795.551075	791.689906	26.796125	-2.306053	1447.440042	28.871718	5.905493	-22.603624	
4.2500	-40.259998	-11.559822	16.787019	-217.528830	814.458305	-1.288503	9.100331	-45.000000	38.868226	-45.000000	-44.965290	3500.360770	-1366.403876	32.347756	67.517242	1825.206562	163.651632	12.329627	5.870507	15.963706	38.270263	-38.276371	-45.000000	-44.999480	-2795.570685	791.713798	26.795541	-2.371848	1447.522690	28.840636	5.930586	-22.612203	
4.2600	-40.231782	-11.508126	16.829791	-216.509174	814.698688	-1.475566	9.097399	-45.000000	38.906143	-45.000000	-44.937680	3500.469726	-1366.342314	32.480902	66.934473	1825.177080	164.957382	12.239673	5.867715	15.953193	38.262429	-38.345928	-45.000000	-44.999069	-2795.591763	791.732936	26.789294	-2.421813	1447.609742	28.719010	5.978867	-22.621990	
4.2700	-40.194231	-11.459663	16.886120	-215.364237	814.963835	-1.650004	9.101066	-45.000000	38.964055	-45.000000	-44.888770	3500.582620	-1366.284908	32.613044	66.377117	1825.134603	166.346468	12.148686	5.858639	15.947849	38.255840	-38.426301	-45.000000	-44.998333	-2795.605270	791.738451	26.789596	-2.453917	1447.694726	28.507926	6.048171	-22.629819	
4.2800	-40.149385	-11.399954	16.947773	-214.083552	815.234388	-1.810640	9.121917	-45.000000	39.036905	-45.000000	-44.799629	3500.685763	-1366.243167	32.751955	65.862806	1825.070498	167.820609	12.057413	5.846318	15.934240	38.247935	-38.526255	-45.000000	-44.997014	-2795.625836	791.736904	26.786975	-2.466383	1447.788079	28.209232	6.136469	-22.637541	
4.2900	-40.099348	-11.332338	17.013103	-212.660648	815.493560	-1.955978	9.144339	-45.000000	39.125618	-45.000000	-44.644220	3500.791035	-1366.207197	32.876018	65.413373	1824.996313	169.374551	11.962574	5.831207	15.935314	38.246588	-38.635780	-45.000000	-44.994651	-2795.646158	791.729529	26.803708	-2.463083	1447.874438	27.827160	6.243315	-22.639724	
4.3000	-40.049554	-11.244749	17.070889	-211.092206	815.727481	-2.084257	9.173721	-45.000000	39.227643	-45.000000	-44.408292	3500.888929	-1366.189450	32.992352	65.038013	1824.909221	171.007151	11.864285	5.814764	15.943047	38.250487	-38.766381	-45.000000	-44.990420	-2795.671665	791.721042	26.832363	-2.443483	1447.960010	27.363634	6.367700	-22.636503	
4.3100	-40.003232	-11.138781	17.112161	-209.377120	815.925057	-2.193607	9.198497	-45.000000	39.352825	-45.000000	-44.075240	3500.992032	-1366.183034	33.084994	64.743639	1824.819177	172.719135	11.759562	5.795775	15.980477	38.268905	-38.907613	-45.000000	-44.982835	-2795.694905	791.713705	26.892151	-2.415670	1448.031146	26.819951	6.511024	-22.623057	
4.3200	-39.957802	-11.021697	17.136643	-207.515720	816.077550	-2.282400	9.223434	-45.000000	39.505489	-45.000000	-43.634269	3501.101513	-1366.190502	33.147446	64.535757	1824.722690	174.510004	11.648358	5.771160	16.037954	38.300897	-39.052877	-45.000000	-44.969264	-2795.724668	791.711139	26.971509	-2.374980	1448.096473	26.193791	6.670463	-22.597846	
4.3300	-39.914780	-10.892840	17.140460	-205.509232	816.178170	-2.349489	9.246037	-45.000000	39.686258	-45.000000	-43.089988	3501.218267	-1366.212294	33.181440	64.417090	1824.618211	176.373942	11.530826	5.739406	16.116293	38.346926	-39.203742	-45.000000	-44.944914	-2795.756002	791.710170	27.076444	-2.324286	1448.151436	25.488671	6.846352	-22.557932	
4.3400	-39.869290	-10.761867	17.136485	-203.359377	816.221505	-2.394655	9.262894	-45.000000	39.885905	-45.000000	-42.449286	3501.344756	-1366.250128	33.178880	64.379797	1824.497655	178.303879	11.407657	5.695678	16.208767	38.405343	-39.364556	-45.000000	-44.901404	-2795.794548	791.701433	27.183123	-2.255128	1448.214450	24.707131	7.033023	-22.503946	
4.3500	-39.823179	-10.627624	17.124555	-201.068517	816.203674	-2.418300	9.272071	-45.000000	40.100587	-45.000000	-41.738091	3501.480611	-1366.300118	33.149498	64.407828	1824.358560	180.267237	11.279064	5.639361	16.301235	38.474782	-39.531046	-45.000000	-44.823166	-2795.843310	791.690772	27.287360	-2.178957	1448.284734	23.868864	7.233002	-22.437636	
4.3600	-39.776123	-10.498855	17.113459	-198.640412	816.122269	-2.421193	9.270681	-45.000000	40.320993	-45.000000	-40.960205	3501.631828	-1366.361145	33.082995	64.484590	1824.204048	182.224787	11.144134	5.564599	16.388013	38.556737	-39.696565	-45.000000	-44.683854	-2795.908944	791.673874	27.369716	-2.092576	1448.369386	22.994720	7.440654	-22.360006	
4.3700	-39.735702	-10.366131	17.093213	-196.081572	815.977019	-2.403498	9.264530	-45.000000	40.543520	-45.000000	-40.146441	3501.788777	-1366.437792	33.004204	64.588395	1824.036954	184.131643	11.004134	5.475379	16.456845	38.649656	-39.863175	-45.000000	-44.461103	-2795.988538	791.648958	27.433710	-2.005805	1448.456400	22.119341	7.657568	-22.272554	
4.3800	-39.704608	-10.232061	17.063059	-193.401111	815.769275	-2.365022	9.251938	-45.000000	40.762658	-45.000000	-39.301448	3501.955373	-1366.531463	32.909304	64.703585	1823.863717	185.966769	10.859093	5.370838	16.521310	38.758826	-40.032275	-45.000000	-44.142730	-2796.080295	791.604627	27.474375	-1.910184	1448.546093	21.267740	7.877044	-22.175972	
4.3900	-39.687530	-10.094668	17.012586	-190.610761	815.502163	-2.304935	9.238955	-45.000000	40.982659	-45.000000	-38.454115	3502.127666	-1366.639809	32.817653	64.824187	1823.688034	187.711137	10.711601	5.259925	16.574043	38.883671	-40.201838	-45.000000	-43.729418	-2796.178984	791.542908	27.503864	-1.808124	1448.627114	20.474711	8.101679	-22.072588	
4.4000	-39.686086	-9.957106	16.941971	-187.723055	815.179169	-2.223011	9.224264	-45.000000	41.200606	-45.000000	-37.595365	3502.306015	-1366.763738	32.721607	64.961704	1823.516508	189.373324	10.562406	5.144616	16.633025	39.028335	-40.374700	-45.000000	-43.230661	-2796.281315	791.460027	27.528980	-1.681597	1448.697815	19.761498	8.325055	-21.962314	
4.4100	-39.699648	-9.828517	16.853725	-184.750521	814.803617	-2.120059	9.211116	-45.000000	41.415639	-45.000000	-36.752683	3502.487115	-1366.899651	32.634903	65.132187	1823.349793	190.950977	10.414996	5.036229	16.682265	39.182985	-40.547768	-45.000000	-42.670012	-2796.387881	791.361756	27.556851	-1.517668	1448.753607	19.157665	8.550529	-21.847998	
4.4200	-39.726660	-9.715513	16.751377	-181.702984	814.376957	-1.999460	9.196642	-45.000000	41.627538	-45.000000	-35.919970	3502.672269	-1367.046641	32.550033	65.343680	1823.190355	192.463945	10.270325	4.937042	16.738375	39.348807	-40.725733	-45.000000	-42.076878	-2796.493627	791.247780	27.597242	-1.295355	1448.794565	18.678512	8.774684	-21.730764	
